<?xml version="1.0" standalone="no"?>
<!DOCTYPE svg PUBLIC "-//W3C//DTD SVG 20010904//EN"
 "http://www.w3.org/TR/2001/REC-SVG-20010904/DTD/svg10.dtd">
<svg version="1.0" xmlns="http://www.w3.org/2000/svg"
 width="460.000000pt" height="460.000000pt" viewBox="0 0 460.000000 460.000000"
 preserveAspectRatio="xMidYMid meet">
<metadata>
Created by potrace 1.11, written by Peter Selinger 2001-2013
</metadata>
<g transform="translate(0.000000,460.000000) scale(0.100000,-0.100000)"
fill="#000000" stroke="none">
<path d="M1083 3416 l-28 -24 -3 -885 -2 -884 32 -32 32 -31 458 0 c252 0 458
-3 458 -6 0 -3 -25 -83 -56 -177 -31 -93 -58 -184 -61 -200 -3 -17 -9 -41 -14
-54 -14 -38 -11 -78 9 -96 17 -15 73 -17 599 -17 540 0 581 1 596 18 30 33 28
43 -46 242 -27 74 -55 151 -63 170 -7 20 -15 55 -19 78 l-6 42 453 0 c249 0
463 3 475 6 12 3 30 18 40 33 16 24 17 82 18 896 2 829 1 871 -17 902 -10 17
-25 34 -34 37 -9 3 -641 6 -1404 6 l-1389 0 -28 -24z"/>
<path d="M510 1923 c5 -40 -1 -51 -30 -61 -26 -10 -31 -8 -48 16 l-20 26 -57
-39 c-31 -22 -58 -42 -61 -46 -2 -4 5 -18 15 -31 19 -24 19 -25 -3 -53 -21
-26 -25 -27 -54 -17 -31 11 -32 11 -42 -31 -6 -23 -15 -52 -20 -65 -15 -35
-13 -40 20 -47 27 -6 30 -10 30 -45 0 -33 -4 -39 -30 -49 -35 -12 -35 -11 -14
-82 20 -68 26 -74 61 -61 26 9 31 7 51 -24 22 -34 22 -34 2 -51 -11 -10 -20
-20 -20 -24 0 -7 108 -89 118 -89 3 0 16 12 27 26 19 23 23 25 48 13 25 -11
33 -30 28 -67 -2 -10 17 -12 76 -10 l78 3 0 29 c0 16 7 32 15 36 8 4 25 12 37
18 19 10 25 8 43 -18 l21 -30 42 30 c88 64 82 55 58 86 -20 25 -20 28 -4 55
15 25 21 28 54 23 l37 -6 21 66 c23 73 24 77 14 74 -5 -1 -19 2 -33 6 -22 6
-26 14 -27 46 -2 34 1 40 28 49 34 12 34 14 13 72 -9 24 -17 51 -18 59 -3 16
-29 18 -58 6 -12 -5 -22 0 -34 19 -16 25 -16 27 3 53 l20 26 -55 43 c-31 24
-59 43 -63 43 -4 0 -16 -11 -26 -25 -17 -23 -21 -25 -51 -14 -17 6 -33 15 -33
20 -1 5 -2 19 -3 32 -1 21 -6 22 -79 25 -70 3 -78 1 -77 -15z m113 -12 c9 -1
17 -8 17 -16 0 -11 -12 -15 -50 -15 -35 0 -50 4 -50 13 0 20 7 24 38 21 15 -1
35 -2 45 -3z m-214 -81 c-13 -8 -31 -23 -41 -32 -14 -14 -18 -15 -29 -2 -13
16 -12 18 33 49 25 17 36 20 47 12 11 -9 9 -14 -10 -27z m407 15 c8 -8 22 -19
32 -24 13 -8 14 -12 3 -25 -12 -14 -16 -13 -42 8 -15 13 -34 26 -40 28 -16 5
-2 28 17 28 9 0 22 -7 30 -15z m-164 -6 c129 -27 227 -124 256 -255 40 -181
-116 -374 -303 -376 -104 -1 -168 24 -243 96 -42 41 -57 63 -72 115 -11 35
-20 84 -20 110 0 147 105 276 250 307 71 16 70 16 132 3z m299 -146 c0 -5 3
-17 5 -28 18 -68 -10 -86 -33 -21 -11 32 -11 41 -1 48 16 10 28 10 29 1z
m-689 -48 c-11 -31 -22 -45 -35 -45 -14 0 -17 5 -11 23 17 55 25 67 43 67 20
0 20 -1 3 -45z m703 -229 c-8 -49 -16 -59 -39 -50 -11 4 -15 12 -10 23 3 9 10
30 15 48 7 23 14 30 25 26 12 -4 14 -15 9 -47z m-707 4 c16 -52 15 -55 -7 -57
-13 -1 -21 9 -30 36 -15 52 -14 61 7 61 11 0 21 -13 30 -40z m159 -201 c9 -3
8 -9 -2 -22 -13 -18 -14 -18 -33 0 -10 10 -27 23 -36 28 -11 7 -15 16 -10 28
6 16 9 16 38 -6 17 -13 36 -26 43 -28z m441 30 c1 -8 -14 -24 -34 -37 -28 -18
-39 -21 -50 -11 -11 9 -7 16 24 39 39 30 55 32 60 9z m-221 -97 c-2 -26 -99
-25 -103 1 -2 14 7 17 51 17 46 0 54 -3 52 -18z"/>
<path d="M540 1700 c-111 -37 -159 -150 -111 -256 28 -62 78 -95 147 -99 74
-4 107 9 149 57 79 93 48 245 -60 293 -51 22 -71 23 -125 5z m147 -62 c49 -46
66 -112 44 -170 -12 -31 -63 -80 -87 -85 -93 -16 -155 11 -194 87 -29 55 -2
142 52 175 66 39 139 36 185 -7z"/>
<path d="M4237 1822 c-23 -3 -28 -8 -24 -23 3 -11 -2 -26 -10 -35 -13 -13 -18
-13 -38 0 -20 14 -24 12 -53 -18 -27 -29 -30 -36 -18 -52 18 -24 2 -64 -24
-57 -10 3 -20 1 -24 -5 -10 -17 -19 -93 -10 -91 37 7 54 -35 23 -60 -19 -16
-19 -17 7 -59 24 -40 27 -42 43 -28 15 14 18 14 32 -2 16 -19 17 -31 7 -48 -4
-6 10 -20 35 -32 42 -22 42 -22 56 -2 18 27 39 25 53 -6 11 -23 15 -25 52 -18
53 8 55 10 49 34 -6 24 32 43 59 29 20 -11 48 3 66 32 12 18 7 49 -8 49 -16 0
3 40 19 41 9 1 22 2 30 3 10 1 16 17 18 51 2 27 1 46 -3 43 -13 -14 -44 13
-44 37 0 18 5 25 20 25 20 0 20 2 -5 50 -23 45 -28 49 -46 40 -29 -16 -51 4
-39 34 7 20 3 25 -35 44 -43 21 -44 21 -50 2 -4 -14 -13 -18 -28 -16 -12 3
-25 5 -29 5 -5 1 -8 10 -8 21 0 20 0 20 -73 12z m110 -184 c40 -18 52 -37 53
-85 0 -44 -13 -64 -59 -87 -22 -12 -32 -12 -66 0 -22 7 -41 14 -42 14 -1 0
-10 14 -19 32 -14 27 -14 37 -3 70 19 57 78 81 136 56z"/>
<path d="M4584 1399 c-3 -6 -1 -16 5 -22 8 -8 11 -5 11 11 0 24 -5 28 -16 11z"/>
<path d="M42 1360 c-7 -11 -18 -17 -27 -14 -12 5 -15 -5 -15 -55 0 -55 2 -62
24 -71 69 -26 87 -115 35 -175 -17 -19 -37 -35 -45 -35 -11 0 -14 -18 -14 -81
0 -70 2 -80 16 -75 9 3 24 6 35 6 14 0 19 7 19 25 0 29 50 61 58 37 6 -19 20
-14 54 18 29 28 30 31 14 49 -17 19 -13 50 8 52 6 1 18 2 26 3 8 0 16 10 16
21 1 11 3 31 5 44 3 20 -1 26 -21 31 -32 7 -39 44 -12 61 18 12 18 13 -2 50
-21 39 -39 49 -51 28 -5 -7 -13 -4 -26 7 -14 12 -16 21 -9 35 9 15 4 21 -27
35 -21 10 -40 19 -43 20 -4 2 -11 -6 -18 -16z"/>
<path d="M4585 1250 c-3 -5 -1 -18 4 -27 9 -16 10 -14 11 10 0 28 -5 34 -15
17z"/>
</g>
</svg>
